<?xml version="1.0" encoding="utf-8"?>
<!-- Generator: Adobe Illustrator 24.1.2, SVG Export Plug-In . SVG Version: 6.00 Build 0)  -->
<svg version="1.1" xmlns="http://www.w3.org/2000/svg" xmlns:xlink="http://www.w3.org/1999/xlink" x="0px" y="0px"
	 viewBox="0 0 1920 1080" style="enable-background:new 0 0 1920 1080;" xml:space="preserve">
<style type="text/css">
	.st0{fill:#FF871A;}
	.st1{fill:#740018;}
	.st2{fill:#F35000;}
	.st3{fill:#C6110F;}
	.st4{fill:#9E0021;}
	.st5{fill:#670012;}
</style>
<g id="Ebene_5">
	<rect x="-451" y="-272" class="st0" width="2745" height="1644"/>
</g>
<g id="Ebene_1">
	<path class="st1" d="M-484,327"/>
	<path class="st2" d="M-640.42,282.83c149.41-118.41,263.48-170.88,390.67-190.39c203.51-31.22,374.31,32.07,419.98,49.59
		c194.3,74.54,180.18,154.38,399.55,260.08c97.16,46.82,243,117.08,428.95,103.89c164.44-11.67,284.28-83.22,353.38-124.48
		c150.52-89.87,150.13-146.78,258.24-210.36c166.64-98.01,412.66-106.97,547.93-55.62c349.02,132.48,488.82,866.91,153.02,1298.16
		c-502.01,644.71-1912.77,413.82-2519.48,238.69c-306.73-88.54-912.66-263.45-971.82-610.37
		C-1229.79,749.93-870.02,464.8-640.42,282.83z"/>
</g>
<g id="Ebene_2">
	<path class="st3" d="M-779,494c150.53-183.39,431.76-168.26,548-162c89.82,4.83,120.85,17.65,462,118
		c490.44,144.26,535.59,149.91,581,153c273.45,18.64,507.41-58.55,588-88c186.97-68.32,233.64-130.06,427-172
		c146.64-31.81,270.38-58.65,376-7c227.96,111.47,307.5,557.29,165,864c-138.91,298.98-457.47,398.33-745,488
		c-555.9,173.37-1007.77,74.63-1656-67c-560.21-122.4-708.78-240.4-781-379c-66.61-127.82-94.38-323.25-60-504
		C-857.88,653.26-842.25,571.05-779,494z"/>
</g>
<g id="Ebene_3">
	<path class="st4" d="M-506.49,709.82c36.03-121.44,151.33-194.87,248.8-211.37c87.91-14.88,144.54,19.4,245.97,59.14
		c99.74,39.08,211.62,60.73,435.39,104.04c56.48,10.93,309.32,57.86,640.84,43.81c138.42-5.87,341.53-15.7,595.6-86.52
		c292.31-81.47,331.1-154.19,426.91-120.47c236.77,83.33,419.98,675.26,271.41,1061.23c-243.88,633.6-1408.4,781.25-2131.73,325.27
		c0,0-467.49-294.71-709.63-928.71C-508.31,889.78-533.25,800.01-506.49,709.82z"/>
</g>
<g id="Ebene_4">
	<path class="st5" d="M-396,686c303.91-148.73,506.07,81.15,1217,106c361.43,12.63,381.9-44.24,1128-127
		c924.55-102.56,1386.82-153.83,1511,3c258.19,326.08-211.47,1411.29-1047,1892c-1178.39,677.97-3023.43,118.41-3270-734
		C-975,1418.07-751.02,859.74-396,686z"/>
</g>
</svg>
